<?xml version="1.0" encoding="UTF-8"?>
<svg id="Layer_1" xmlns="http://www.w3.org/2000/svg" version="1.1" viewBox="0 0 420 180">
  <!-- Generator: Adobe Illustrator 29.0.1, SVG Export Plug-In . SVG Version: 2.1.0 Build 192)  -->
  <defs>
    <style>
      .st0 {
        stroke: #d8d2c7;
      }

      .st1 {
        fill: #dfd3db;
      }

      .st1, .st2, .st3, .st4, .st5, .st6 {
        stroke: #7b5796;
      }

      .st1, .st3 {
        stroke-linejoin: round;
      }

      .st1, .st3, .st5, .st6 {
        stroke-width: 2px;
      }

      .st2 {
        fill: #fffaf1;
        stroke-opacity: .4;
      }

      .st7 {
        stroke: #b29bbc;
        stroke-width: 4px;
      }

      .st7, .st8 {
        stroke-linecap: round;
      }

      .st9 {
        fill: #d2c3d2;
        opacity: .9;
      }

      .st9, .st10, .st11, .st12, .st13, .st5, .st8, .st14 {
        isolation: isolate;
      }

      .st10 {
        fill: #7b5796;
        opacity: 0;
      }

      .st3, .st4 {
        fill: #efe6e6;
      }

      .st4 {
        stroke-opacity: .4;
      }

      .st15 {
        opacity: .4;
      }

      .st11 {
        opacity: .1;
      }

      .st11, .st13, .st14 {
        fill: #202326;
      }

      .st16 {
        stroke: #e7dfd1;
      }

      .st16, .st5 {
        fill: none;
      }

      .st13 {
        font-size: 12px;
      }

      .st13, .st14 {
        font-family: SegoeUI-Bold, 'Segoe UI';
        font-weight: 700;
      }

      .st5 {
        opacity: .2;
      }

      .st6 {
        fill: #f2eae8;
      }

      .st8 {
        opacity: .7;
        stroke: #b49ebd;
        stroke-width: 3px;
      }

      .st14 {
        font-size: 13px;
      }

      .st17 {
        fill: #fffdf8;
      }
    </style>
  </defs>
  <g id="background">
    <rect class="st17" y="0" width="420" height="180" rx="8" ry="8"/>
    <path class="st10" d="M0,138c72-26,136,20,213-12,73-32,125-16,207-44v98H0v-42Z"/>
    <path class="st5" d="M24,137c58-32,102,12,158-25,61-40,114,11,172-24,20-12,36-16,50-13"/>
    <g id="map-grid" class="st15">
      <path class="st0" d="M30,16v148"/>
      <path class="st0" d="M60,16v148"/>
      <path class="st0" d="M90,16v148"/>
      <path class="st0" d="M120,16v148"/>
      <path class="st0" d="M150,16v148"/>
      <path class="st0" d="M180,16v148"/>
      <path class="st0" d="M210,16v148"/>
      <path class="st0" d="M240,16v148"/>
      <path class="st0" d="M270,16v148"/>
      <path class="st0" d="M300,16v148"/>
      <path class="st0" d="M330,16v148"/>
      <path class="st0" d="M360,16v148"/>
      <path class="st0" d="M390,16v148"/>
      <path class="st0" d="M16,30h388"/>
      <path class="st0" d="M16,60h388"/>
      <path class="st0" d="M16,90h388"/>
      <path class="st0" d="M16,120h388"/>
      <path class="st0" d="M16,150h388"/>
    </g>
    <rect class="st16" x="18" y="18" width="384" height="144" rx="8" ry="8"/>
  </g>
  <g id="caption">
    <rect class="st2" x="26.1" y="18" width="168" height="28" rx="7" ry="7"/>
    <g class="st12">
      <text class="st14" transform="translate(35.9 36)"><tspan x="0" y="0">Крупные работодатели</tspan></text>
    </g>
  </g>
  <g id="illustration">
    <ellipse class="st11" cx="181" cy="150" rx="119" ry="9"/>
    <path class="st3" d="M218.9,135v-52h70v52h-70Z"/>
    <path class="st1" d="M207.9,88.1l41.8-26.9c3.4-2.2,7.7-2.1,11.1.2l39.3,26.7h-92.1Z"/>
    <path class="st7" d="M232.9,101h43M232.9,116h43"/>
    <rect class="st4" x="316" y="59.6" width="74" height="24" rx="7" ry="7"/>
    <text class="st13" transform="translate(332.9 75.7)"><tspan x="0" y="0">работа</tspan></text>
    <rect class="st4" x="246" y="32" width="144" height="24" rx="7" ry="7"/>
    <text class="st13" transform="translate(252.6 48.1)"><tspan x="0" y="0">крупные организации</tspan></text>
  </g>
  <g>
    <path class="st6" d="M74.9,63.9h39.2c5.4,0,9.8,3.1,9.8,7v56c0,3.9-4.4,7-9.8,7h-39.2c-5.4,0-9.8-3.1-9.8-7v-56c0-3.9,4.4-7,9.8-7Z"/>
    <path class="st8" d="M77.7,78.7h33.6"/>
    <path class="st8" d="M77.7,71.6h33.6"/>
    <path class="st8" d="M77.7,85.9h33.6"/>
    <path class="st8" d="M77.7,93.1h33.6"/>
    <path class="st8" d="M77.7,100.3h33.6"/>
    <path class="st8" d="M77.7,107.4h33.6"/>
    <path class="st9" d="M104.7,117h5.6c2.4,0,4.2,1.3,4.2,3v15h-14v-15c0-1.7,1.8-3,4.2-3Z"/>
  </g>
  <g>
    <path class="st6" d="M147.2,50.3h39.2c5.4,0,9.8,3.7,9.8,8.3v66.7c0,4.6-4.4,8.3-9.8,8.3h-39.2c-5.4,0-9.8-3.7-9.8-8.3V58.7c0-4.6,4.4-8.3,9.8-8.3Z"/>
    <path class="st8" d="M144,68h45.6"/>
    <path class="st8" d="M144,59.5h45.6"/>
    <path class="st8" d="M144,76.5h45.6"/>
    <path class="st8" d="M144,85.1h45.6"/>
    <path class="st8" d="M144,93.7h45.6"/>
    <path class="st8" d="M144,102.1h45.6"/>
    <path class="st9" d="M157.1,113.6h5.6c2.4,0,4.2,1.5,4.2,3.6v17.9h-14v-17.9c0-2,1.8-3.6,4.2-3.6Z"/>
  </g>
</svg>