<?xml version="1.0" encoding="UTF-8"?>
<svg id="Layer_1" xmlns="http://www.w3.org/2000/svg" version="1.1" viewBox="0 0 420 180">
  <!-- Generator: Adobe Illustrator 29.0.1, SVG Export Plug-In . SVG Version: 2.1.0 Build 192)  -->
  <defs>
    <style>
      .st0 {
        stroke: #334044;
      }

      .st1, .st2 {
        fill: #263135;
      }

      .st1, .st2, .st3, .st4 {
        stroke-width: 2px;
      }

      .st1, .st3, .st4, .st5, .st6 {
        stroke: #54a7a5;
      }

      .st7, .st2 {
        opacity: .4;
      }

      .st2 {
        stroke: #448282;
      }

      .st2, .st8 {
        stroke-linecap: round;
      }

      .st2, .st9, .st4, .st10, .st11, .st12, .st13 {
        isolation: isolate;
      }

      .st8 {
        stroke-width: 3px;
      }

      .st8, .st3 {
        stroke-linejoin: round;
      }

      .st8, .st14, .st4 {
        fill: none;
      }

      .st8, .st15 {
        stroke: #d46b61;
      }

      .st3 {
        fill: #263431;
      }

      .st14 {
        stroke: #2a363a;
      }

      .st4 {
        opacity: .2;
      }

      .st10 {
        font-size: 12px;
      }

      .st10, .st11, .st13 {
        fill: #edf1ed;
      }

      .st10, .st13 {
        font-family: SegoeUI-Bold, 'Segoe UI';
        font-weight: 700;
      }

      .st11 {
        opacity: .1;
      }

      .st5 {
        fill: #263135;
      }

      .st5, .st15, .st6 {
        stroke-opacity: .4;
      }

      .st15 {
        fill: #373844;
      }

      .st6 {
        fill: #1c2427;
      }

      .st12 {
        fill: #54a7a5;
        opacity: 0;
      }

      .st13 {
        font-size: 13px;
      }

      .st16 {
        fill: #171d20;
      }
    </style>
  </defs>
  <g id="background">
    <rect class="st16" y="0" width="420" height="180" rx="8" ry="8"/>
    <path class="st12" d="M0,138c72-26,136,20,213-12,73-32,125-16,207-44v98H0v-42Z"/>
    <path class="st4" d="M24,137c58-32,102,12,158-25,61-40,114,11,172-24,20-12,36-16,50-13"/>
    <g id="map-grid" class="st7">
      <path class="st0" d="M30,16v148"/>
      <path class="st0" d="M60,16v148"/>
      <path class="st0" d="M90,16v148"/>
      <path class="st0" d="M120,16v148"/>
      <path class="st0" d="M150,16v148"/>
      <path class="st0" d="M180,16v148"/>
      <path class="st0" d="M210,16v148"/>
      <path class="st0" d="M240,16v148"/>
      <path class="st0" d="M270,16v148"/>
      <path class="st0" d="M300,16v148"/>
      <path class="st0" d="M330,16v148"/>
      <path class="st0" d="M360,16v148"/>
      <path class="st0" d="M390,16v148"/>
      <path class="st0" d="M16,30h388"/>
      <path class="st0" d="M16,60h388"/>
      <path class="st0" d="M16,90h388"/>
      <path class="st0" d="M16,120h388"/>
      <path class="st0" d="M16,150h388"/>
    </g>
    <rect class="st14" x="18" y="18" width="384" height="144" rx="8" ry="8"/>
  </g>
  <g id="caption">
    <rect class="st6" x="26.1" y="18" width="86" height="28" rx="7" ry="7"/>
    <g class="st9">
      <g class="st9">
        <text class="st13" transform="translate(49.8 36)"><tspan x="0" y="0">Износ</tspan></text>
      </g>
    </g>
  </g>
  <ellipse class="st11" cx="130" cy="148.5" rx="57.7" ry="8.5"/>
  <ellipse class="st11" cx="302.9" cy="148.5" rx="35" ry="8.5"/>
  <rect class="st1" x="83" y="84.4" width="94" height="52.2" rx="7" ry="7"/>
  <path class="st5" d="M100,97.9h16c2.2,0,4,1.7,4,3.8v15.3c0,2.1-1.8,3.8-4,3.8h-16c-2.2,0-4-1.7-4-3.8v-15.3c0-2.1,1.8-3.8,4-3.8Z"/>
  <path class="st1" d="M110,137l-5.1-8.2c-1.7-2.7-5-3.3-7.9-1.5h0c-2.9,1.8-6.2,1.2-7.9-1.5l-6.1-9.8"/>
  <path class="st1" d="M176.6,117.9l-13.8-8.8c-1-.6-1.3-1.9-.8-3l4.6-8.7c.6-1,.2-2.3-.8-3l-15.8-10"/>
  <rect class="st1" x="267.9" y="47.2" width="70" height="78" rx="6" ry="6"/>
  <rect class="st15" x="268.9" y="31.1" width="68" height="24" rx="7" ry="7"/>
  <g class="st9">
    <text class="st10" transform="translate(286 47.2)"><tspan x="0" y="0">износ</tspan></text>
  </g>
  <path class="st8" d="M324,64.4l-15.5,11-10.8-4.2-17.4,12.4"/>
  <path class="st2" d="M277.9,92.2h50"/>
  <path class="st2" d="M277.9,99.9h50"/>
  <path class="st2" d="M277.9,107.7h50"/>
  <path class="st2" d="M277.9,116.1h50"/>
  <rect class="st5" x="144" y="97.9" width="23" height="23" rx="3.8" ry="3.8"/>
  <path class="st3" d="M72.3,88.2l55.4-34.7c1.4-.9,3.2-.9,4.6,0l55.4,34.7h-115.4Z"/>
</svg>